<mxfile host="app.diagrams.net" modified="2021-08-02T09:38:46.262Z" agent="5.0 (Windows NT 10.0; Win64; x64) AppleWebKit/537.36 (KHTML, like Gecko) Chrome/92.0.4515.107 Safari/537.36" etag="9k74Z2FA42Ge6anZmraH" version="14.9.3" type="github">
  <diagram id="C5RBs43oDa-KdzZeNtuy" name="Page-1">
    <mxGraphModel dx="1695" dy="482" grid="1" gridSize="10" guides="1" tooltips="1" connect="1" arrows="1" fold="1" page="1" pageScale="1" pageWidth="827" pageHeight="1169" math="0" shadow="0">
      <root>
        <mxCell id="WIyWlLk6GJQsqaUBKTNV-0" />
        <mxCell id="WIyWlLk6GJQsqaUBKTNV-1" parent="WIyWlLk6GJQsqaUBKTNV-0" />
        <mxCell id="fKe1KmPcs22cKLeILPhQ-0" value="Mouse" style="swimlane;fontStyle=1;align=center;verticalAlign=top;childLayout=stackLayout;horizontal=1;startSize=26;horizontalStack=0;resizeParent=1;resizeParentMax=0;resizeLast=0;collapsible=1;marginBottom=0;" vertex="1" parent="WIyWlLk6GJQsqaUBKTNV-1">
          <mxGeometry x="-530" y="140" width="480" height="206" as="geometry" />
        </mxCell>
        <mxCell id="fKe1KmPcs22cKLeILPhQ-1" value="-have_focus: bool&#xa;" style="text;strokeColor=none;fillColor=none;align=left;verticalAlign=top;spacingLeft=4;spacingRight=4;overflow=hidden;rotatable=0;points=[[0,0.5],[1,0.5]];portConstraint=eastwest;" vertex="1" parent="fKe1KmPcs22cKLeILPhQ-0">
          <mxGeometry y="26" width="480" height="26" as="geometry" />
        </mxCell>
        <mxCell id="fKe1KmPcs22cKLeILPhQ-4" value="-key_state:int (1-клавиша нажата,2-клавиша отпущена, 0-ничего)" style="text;html=1;strokeColor=none;fillColor=none;align=left;verticalAlign=middle;whiteSpace=wrap;rounded=0;" vertex="1" parent="fKe1KmPcs22cKLeILPhQ-0">
          <mxGeometry y="52" width="480" height="20" as="geometry" />
        </mxCell>
        <mxCell id="fKe1KmPcs22cKLeILPhQ-5" value="-position:Coords" style="text;html=1;strokeColor=none;fillColor=none;align=left;verticalAlign=middle;whiteSpace=wrap;rounded=0;" vertex="1" parent="fKe1KmPcs22cKLeILPhQ-0">
          <mxGeometry y="72" width="480" height="20" as="geometry" />
        </mxCell>
        <mxCell id="fKe1KmPcs22cKLeILPhQ-7" value="-subscribers:{}" style="text;html=1;strokeColor=none;fillColor=none;align=left;verticalAlign=middle;whiteSpace=wrap;rounded=0;" vertex="1" parent="fKe1KmPcs22cKLeILPhQ-0">
          <mxGeometry y="92" width="480" height="20" as="geometry" />
        </mxCell>
        <mxCell id="fKe1KmPcs22cKLeILPhQ-2" value="" style="line;strokeWidth=1;fillColor=none;align=left;verticalAlign=middle;spacingTop=-1;spacingLeft=3;spacingRight=3;rotatable=0;labelPosition=right;points=[];portConstraint=eastwest;" vertex="1" parent="fKe1KmPcs22cKLeILPhQ-0">
          <mxGeometry y="112" width="480" height="8" as="geometry" />
        </mxCell>
        <mxCell id="fKe1KmPcs22cKLeILPhQ-3" value="+update()" style="text;strokeColor=none;fillColor=none;align=left;verticalAlign=top;spacingLeft=4;spacingRight=4;overflow=hidden;rotatable=0;points=[[0,0.5],[1,0.5]];portConstraint=eastwest;" vertex="1" parent="fKe1KmPcs22cKLeILPhQ-0">
          <mxGeometry y="120" width="480" height="26" as="geometry" />
        </mxCell>
        <mxCell id="fKe1KmPcs22cKLeILPhQ-15" value="+subscirbe(obj:Subscriber,event:Mouse_events)" style="text;html=1;strokeColor=none;fillColor=none;align=left;verticalAlign=middle;whiteSpace=wrap;rounded=0;" vertex="1" parent="fKe1KmPcs22cKLeILPhQ-0">
          <mxGeometry y="146" width="480" height="20" as="geometry" />
        </mxCell>
        <mxCell id="fKe1KmPcs22cKLeILPhQ-16" value="-unsubscribe(obj:Subscriber,event:Mouse_events)" style="text;html=1;strokeColor=none;fillColor=none;align=left;verticalAlign=middle;whiteSpace=wrap;rounded=0;" vertex="1" parent="fKe1KmPcs22cKLeILPhQ-0">
          <mxGeometry y="166" width="480" height="20" as="geometry" />
        </mxCell>
        <mxCell id="fKe1KmPcs22cKLeILPhQ-17" value="+notify(event:Mouse_events,data)&amp;nbsp; &amp;nbsp; &amp;nbsp;data-кортеж с парой (тип события: данные)" style="text;html=1;strokeColor=none;fillColor=none;align=left;verticalAlign=middle;whiteSpace=wrap;rounded=0;" vertex="1" parent="fKe1KmPcs22cKLeILPhQ-0">
          <mxGeometry y="186" width="480" height="20" as="geometry" />
        </mxCell>
        <mxCell id="fKe1KmPcs22cKLeILPhQ-8" value="Mouse_events(Enum)" style="swimlane;fontStyle=1;align=center;verticalAlign=top;childLayout=stackLayout;horizontal=1;startSize=26;horizontalStack=0;resizeParent=1;resizeParentMax=0;resizeLast=0;collapsible=1;marginBottom=0;" vertex="1" parent="WIyWlLk6GJQsqaUBKTNV-1">
          <mxGeometry x="-750" y="120" width="160" height="100" as="geometry" />
        </mxCell>
        <mxCell id="fKe1KmPcs22cKLeILPhQ-9" value="+Key_state" style="text;strokeColor=none;fillColor=none;align=left;verticalAlign=top;spacingLeft=4;spacingRight=4;overflow=hidden;rotatable=0;points=[[0,0.5],[1,0.5]];portConstraint=eastwest;" vertex="1" parent="fKe1KmPcs22cKLeILPhQ-8">
          <mxGeometry y="26" width="160" height="26" as="geometry" />
        </mxCell>
        <mxCell id="fKe1KmPcs22cKLeILPhQ-12" value="+position" style="text;html=1;strokeColor=none;fillColor=none;align=left;verticalAlign=middle;whiteSpace=wrap;rounded=0;" vertex="1" parent="fKe1KmPcs22cKLeILPhQ-8">
          <mxGeometry y="52" width="160" height="20" as="geometry" />
        </mxCell>
        <mxCell id="fKe1KmPcs22cKLeILPhQ-13" value="+Focus" style="text;html=1;strokeColor=none;fillColor=none;align=left;verticalAlign=middle;whiteSpace=wrap;rounded=0;" vertex="1" parent="fKe1KmPcs22cKLeILPhQ-8">
          <mxGeometry y="72" width="160" height="20" as="geometry" />
        </mxCell>
        <mxCell id="fKe1KmPcs22cKLeILPhQ-10" value="" style="line;strokeWidth=1;fillColor=none;align=left;verticalAlign=middle;spacingTop=-1;spacingLeft=3;spacingRight=3;rotatable=0;labelPosition=right;points=[];portConstraint=eastwest;" vertex="1" parent="fKe1KmPcs22cKLeILPhQ-8">
          <mxGeometry y="92" width="160" height="8" as="geometry" />
        </mxCell>
        <mxCell id="fKe1KmPcs22cKLeILPhQ-18" value="Subscriber" style="swimlane;fontStyle=1;align=center;verticalAlign=top;childLayout=stackLayout;horizontal=1;startSize=26;horizontalStack=0;resizeParent=1;resizeParentMax=0;resizeLast=0;collapsible=1;marginBottom=0;" vertex="1" parent="WIyWlLk6GJQsqaUBKTNV-1">
          <mxGeometry x="120" y="160" width="160" height="60" as="geometry" />
        </mxCell>
        <mxCell id="fKe1KmPcs22cKLeILPhQ-20" value="" style="line;strokeWidth=1;fillColor=none;align=left;verticalAlign=middle;spacingTop=-1;spacingLeft=3;spacingRight=3;rotatable=0;labelPosition=right;points=[];portConstraint=eastwest;" vertex="1" parent="fKe1KmPcs22cKLeILPhQ-18">
          <mxGeometry y="26" width="160" height="8" as="geometry" />
        </mxCell>
        <mxCell id="fKe1KmPcs22cKLeILPhQ-21" value="+update(data)" style="text;strokeColor=none;fillColor=none;align=left;verticalAlign=top;spacingLeft=4;spacingRight=4;overflow=hidden;rotatable=0;points=[[0,0.5],[1,0.5]];portConstraint=eastwest;fontStyle=2" vertex="1" parent="fKe1KmPcs22cKLeILPhQ-18">
          <mxGeometry y="34" width="160" height="26" as="geometry" />
        </mxCell>
        <mxCell id="fKe1KmPcs22cKLeILPhQ-23" value="button&#xa;" style="swimlane;fontStyle=1;align=center;verticalAlign=top;childLayout=stackLayout;horizontal=1;startSize=26;horizontalStack=0;resizeParent=1;resizeParentMax=0;resizeLast=0;collapsible=1;marginBottom=0;" vertex="1" parent="WIyWlLk6GJQsqaUBKTNV-1">
          <mxGeometry y="330" width="160" height="86" as="geometry" />
        </mxCell>
        <mxCell id="fKe1KmPcs22cKLeILPhQ-24" value="+ field: type" style="text;strokeColor=none;fillColor=none;align=left;verticalAlign=top;spacingLeft=4;spacingRight=4;overflow=hidden;rotatable=0;points=[[0,0.5],[1,0.5]];portConstraint=eastwest;" vertex="1" parent="fKe1KmPcs22cKLeILPhQ-23">
          <mxGeometry y="26" width="160" height="26" as="geometry" />
        </mxCell>
        <mxCell id="fKe1KmPcs22cKLeILPhQ-25" value="" style="line;strokeWidth=1;fillColor=none;align=left;verticalAlign=middle;spacingTop=-1;spacingLeft=3;spacingRight=3;rotatable=0;labelPosition=right;points=[];portConstraint=eastwest;" vertex="1" parent="fKe1KmPcs22cKLeILPhQ-23">
          <mxGeometry y="52" width="160" height="8" as="geometry" />
        </mxCell>
        <mxCell id="fKe1KmPcs22cKLeILPhQ-26" value="+update(data)" style="text;strokeColor=none;fillColor=none;align=left;verticalAlign=top;spacingLeft=4;spacingRight=4;overflow=hidden;rotatable=0;points=[[0,0.5],[1,0.5]];portConstraint=eastwest;" vertex="1" parent="fKe1KmPcs22cKLeILPhQ-23">
          <mxGeometry y="60" width="160" height="26" as="geometry" />
        </mxCell>
        <mxCell id="fKe1KmPcs22cKLeILPhQ-29" value="1" style="endArrow=open;html=1;endSize=12;startArrow=diamondThin;startSize=14;startFill=0;edgeStyle=orthogonalEdgeStyle;align=left;verticalAlign=bottom;exitX=0.998;exitY=0.923;exitDx=0;exitDy=0;exitPerimeter=0;entryX=0.005;entryY=0.458;entryDx=0;entryDy=0;entryPerimeter=0;" edge="1" parent="WIyWlLk6GJQsqaUBKTNV-1" source="fKe1KmPcs22cKLeILPhQ-1" target="fKe1KmPcs22cKLeILPhQ-20">
          <mxGeometry x="-1" y="3" relative="1" as="geometry">
            <mxPoint x="-45" y="190" as="sourcePoint" />
            <mxPoint x="115" y="190" as="targetPoint" />
          </mxGeometry>
        </mxCell>
        <mxCell id="fKe1KmPcs22cKLeILPhQ-30" value="" style="endArrow=block;endSize=16;endFill=0;html=1;entryX=0.381;entryY=1.038;entryDx=0;entryDy=0;entryPerimeter=0;exitX=0.463;exitY=-0.023;exitDx=0;exitDy=0;exitPerimeter=0;" edge="1" parent="WIyWlLk6GJQsqaUBKTNV-1" source="fKe1KmPcs22cKLeILPhQ-23" target="fKe1KmPcs22cKLeILPhQ-21">
          <mxGeometry width="160" relative="1" as="geometry">
            <mxPoint x="30" y="310" as="sourcePoint" />
            <mxPoint x="190" y="310" as="targetPoint" />
          </mxGeometry>
        </mxCell>
      </root>
    </mxGraphModel>
  </diagram>
</mxfile>
